<svg width="24" height="24" viewBox="0 0 24 24" fill="none" xmlns="http://www.w3.org/2000/svg">
<g clip-path="url(#clip0_1542_290)">
<path d="M12 0C9.62663 0 7.30655 0.703788 5.33316 2.02236C3.35977 3.34094 1.8217 5.21508 0.913451 7.4078C0.00519941 9.60051 -0.232441 12.0133 0.230582 14.3411C0.693605 16.6689 1.83649 18.807 3.51472 20.4853C5.19295 22.1635 7.33115 23.3064 9.65892 23.7694C11.9867 24.2324 14.3995 23.9948 16.5922 23.0865C18.7849 22.1783 20.6591 20.6402 21.9776 18.6668C23.2962 16.6934 24 14.3734 24 12C24 10.4241 23.6896 8.8637 23.0866 7.4078C22.4835 5.95189 21.5996 4.62902 20.4853 3.51472C19.371 2.40041 18.0481 1.5165 16.5922 0.913445C15.1363 0.310389 13.5759 0 12 0ZM12 21.6C10.1013 21.6 8.24524 21.037 6.66653 19.9821C5.08782 18.9272 3.85736 17.4279 3.13076 15.6738C2.40416 13.9196 2.21405 11.9893 2.58447 10.1271C2.95488 8.26491 3.8692 6.55436 5.21178 5.21177C6.55436 3.86919 8.26492 2.95488 10.1271 2.58446C11.9894 2.21404 13.9196 2.40415 15.6738 3.13076C17.4279 3.85736 18.9272 5.08781 19.9821 6.66652C21.037 8.24524 21.6 10.1013 21.6 12C21.6 14.5461 20.5886 16.9879 18.7882 18.7882C16.9879 20.5886 14.5461 21.6 12 21.6Z" fill="#23240D"/>
<path d="M10.224 11.736C10.6155 11.6564 10.9658 11.44 11.2121 11.1255C11.4584 10.811 11.5846 10.4191 11.568 10.02C11.568 8.81998 10.644 8.09998 9.24 8.09998H6V15.9H9.24C10.8 15.84 12 15.036 12 13.644C12.0113 13.4015 11.974 13.1591 11.8904 12.9312C11.8068 12.7033 11.6785 12.4943 11.5131 12.3166C11.3477 12.1389 11.1484 11.996 10.9271 11.8963C10.7057 11.7966 10.4667 11.7421 10.224 11.736ZM7.512 9.20398H8.892C9.612 9.20398 10.032 9.58798 10.032 10.224C10.032 10.86 9.576 11.292 8.532 11.292H7.512V9.20398ZM8.712 14.688H7.512V12.36H8.988C9.888 12.36 10.392 12.816 10.392 13.56C10.392 14.304 9.888 14.688 8.664 14.688H8.712ZM15.3 9.95998C14.9361 9.92967 14.57 9.97841 14.2268 10.1029C13.8835 10.2273 13.5712 10.4246 13.3113 10.681C13.0514 10.9375 12.8501 11.2471 12.7211 11.5887C12.5921 11.9303 12.5385 12.2957 12.564 12.66V13.2C12.5345 13.5746 12.5871 13.9512 12.7183 14.3034C12.8495 14.6556 13.056 14.9748 13.3235 15.2389C13.5909 15.5029 13.9128 15.7053 14.2667 15.8319C14.6205 15.9585 14.9978 16.0063 15.372 15.972C15.9643 16.0423 16.5617 15.8896 17.0475 15.5435C17.5334 15.1974 17.8729 14.6828 18 14.1H16.548C16.4729 14.3496 16.31 14.5636 16.0895 14.7026C15.8689 14.8415 15.6056 14.896 15.348 14.856C15.1645 14.8606 14.9822 14.8258 14.8134 14.754C14.6445 14.6822 14.493 14.575 14.369 14.4396C14.2451 14.3043 14.1516 14.144 14.0948 13.9695C14.038 13.795 14.0194 13.6103 14.04 13.428V13.26H18V12.696C18.0283 12.3326 17.9781 11.9673 17.8529 11.625C17.7277 11.2827 17.5304 10.9712 17.2744 10.7118C17.0184 10.4523 16.7096 10.2509 16.3689 10.1212C16.0283 9.99152 15.6637 9.93653 15.3 9.95998ZM16.5 12.36H14.076C14.061 12.1936 14.0808 12.0258 14.1344 11.8675C14.1879 11.7092 14.2739 11.5639 14.3869 11.4407C14.4998 11.3176 14.6373 11.2194 14.7904 11.1525C14.9435 11.0855 15.1089 11.0513 15.276 11.052C15.4431 11.0513 15.6085 11.0855 15.7616 11.1525C15.9147 11.2194 16.0521 11.3176 16.1651 11.4407C16.2781 11.5639 16.3641 11.7092 16.4176 11.8675C16.4712 12.0258 16.491 12.1936 16.476 12.36H16.5ZM13.5 8.63998H17.1V9.23998H13.5V8.63998Z" fill="#23240D"/>
</g>
<defs>
<clipPath id="clip0_1542_290">
<rect width="24" height="24" fill="white"/>
</clipPath>
</defs>
</svg>
