<svg width="74" height="74" viewBox="0 0 74 74" fill="none" xmlns="http://www.w3.org/2000/svg">
<path d="M36.8333 6C20.1186 6 6 20.1186 6 36.8333C6 53.5481 20.1186 67.6667 36.8333 67.6667C53.5481 67.6667 67.6667 53.5481 67.6667 36.8333C67.6667 20.1186 53.5481 6 36.8333 6ZM36.8333 21.4167C42.1583 21.4167 46.0833 25.3387 46.0833 30.6667C46.0833 35.9947 42.1583 39.9167 36.8333 39.9167C31.5115 39.9167 27.5833 35.9947 27.5833 30.6667C27.5833 25.3387 31.5115 21.4167 36.8333 21.4167ZM21.0898 51.547C23.8556 47.477 28.4683 44.7637 33.75 44.7637H39.9167C45.2015 44.7637 49.8111 47.477 52.5768 51.547C48.6363 55.765 43.0463 58.4167 36.8333 58.4167C30.6204 58.4167 25.0303 55.765 21.0898 51.547Z" fill="#4D4D3B"/>
<circle cx="37" cy="37" r="32" fill="#4D4D3B" fill-opacity="0.3"/>
</svg>
