<svg width="120" height="115" viewBox="0 0 120 115" fill="none" xmlns="http://www.w3.org/2000/svg">
<path fill-rule="evenodd" clip-rule="evenodd" d="M119.793 53.3625L111.275 53.5315L111.394 59.5303L112.846 59.5016L112.76 55.1584L119.826 55.0182L119.793 53.3625ZM108.608 41.1348L116.802 38.7992L117.255 40.3918L110.458 42.3293L111.649 46.5069L110.253 46.905L108.608 41.1348ZM103.055 29.6587C103.121 30.2203 103.318 30.7662 103.647 31.2964C103.964 31.8062 104.353 32.2141 104.816 32.52C105.283 32.8327 105.784 33.04 106.318 33.1418C106.863 33.2462 107.407 33.2517 107.952 33.1585C108.504 33.0611 109.017 32.8647 109.493 32.5695C109.955 32.2826 110.351 31.9193 110.681 31.4794C111.011 31.0395 111.257 30.5569 111.421 30.0317C111.585 29.5064 111.637 28.9609 111.577 28.3951C111.522 27.8361 111.333 27.2949 111.008 26.7715C110.687 26.2548 110.29 25.8423 109.816 25.5338C109.353 25.2279 108.849 25.0227 108.304 24.9183C107.77 24.8166 107.226 24.811 106.67 24.9016C106.125 24.9948 105.612 25.1912 105.129 25.4907C104.667 25.7775 104.267 26.143 103.931 26.5871C103.601 27.027 103.355 27.5095 103.191 28.0348C103.038 28.5626 102.993 29.1039 103.055 29.6587ZM105.196 27.624C105.429 27.3475 105.702 27.1122 106.015 26.9182C106.314 26.7326 106.634 26.5954 106.974 26.5066C107.318 26.4246 107.661 26.4003 108.002 26.4336C108.343 26.4669 108.661 26.5706 108.957 26.7445C109.265 26.921 109.526 27.1826 109.741 27.5293C109.943 27.8556 110.057 28.1901 110.081 28.5327C110.117 28.878 110.073 29.2107 109.952 29.5309C109.842 29.8536 109.67 30.1532 109.437 30.4298C109.214 30.7089 108.947 30.9455 108.634 31.1395C108.342 31.3209 108.02 31.4547 107.669 31.5409C107.328 31.6297 106.984 31.6595 106.637 31.6304C106.296 31.5971 105.972 31.4922 105.665 31.3156C105.364 31.1349 105.109 30.8746 104.898 30.5347C104.691 30.2016 104.57 29.8624 104.535 29.5172C104.51 29.1745 104.553 28.8418 104.664 28.5191C104.785 28.1989 104.963 27.9006 105.196 27.624ZM92.9308 19.1061L98.6615 12.8014L101.45 15.3358C101.74 15.5994 101.952 15.9008 102.088 16.2398C102.229 16.5842 102.296 16.9377 102.291 17.3005C102.292 17.6685 102.226 18.02 102.095 18.3547C101.97 18.6948 101.789 18.9951 101.552 19.2556C101.31 19.522 101.028 19.7364 100.707 19.899C100.398 20.061 100.074 20.1557 99.7356 20.1832C99.3972 20.2107 99.0667 20.1698 98.7444 20.0606L98.0279 23.7391L96.6781 22.5122L97.3026 19.2204L96.0772 18.1065L94.1562 20.2199L92.9308 19.1061ZM97.0539 17.0321L98.5901 18.4284C98.744 18.5683 98.9205 18.6477 99.1196 18.6665C99.3241 18.6794 99.5318 18.6412 99.7428 18.5518C99.9537 18.4625 100.145 18.3231 100.317 18.1336C100.5 17.9324 100.618 17.7201 100.669 17.4967C100.726 17.2675 100.73 17.0493 100.681 16.8421C100.637 16.6403 100.541 16.4721 100.393 16.3376L98.9103 14.9897L97.0539 17.0321ZM83.6301 6.78278C83.2414 7.14168 82.9294 7.55294 82.6939 8.01656C82.4511 8.49445 82.2994 9.01406 82.2386 9.57539C82.1885 10.1332 82.228 10.6826 82.357 11.2237C82.4967 11.7613 82.7332 12.2583 83.0667 12.7148C83.4037 13.1641 83.8433 13.5265 84.3854 13.8018C84.7991 14.0119 85.2507 14.1561 85.7404 14.2343C86.2301 14.3126 86.7095 14.3049 87.1788 14.2112C87.6552 14.1212 88.0643 13.9252 88.4061 13.6233L87.5504 12.3138C87.2986 12.5268 87.0258 12.6664 86.732 12.7326C86.4382 12.7987 86.1501 12.8094 85.8678 12.7647C85.5854 12.7199 85.3265 12.6378 85.0911 12.5183C84.763 12.3516 84.4943 12.1299 84.285 11.8531C84.0864 11.5727 83.947 11.2642 83.8669 10.9274C83.7975 10.587 83.7872 10.2363 83.836 9.87529C83.8884 9.50711 83.9997 9.1554 84.17 8.82016C84.3222 8.52059 84.5171 8.24276 84.7549 7.98666C84.9997 7.73419 85.2765 7.53379 85.5851 7.38548C85.8938 7.23716 86.2216 7.15695 86.5688 7.14483C86.923 7.13634 87.2856 7.22628 87.6565 7.41467C87.8847 7.53061 88.0984 7.68401 88.2976 7.87489C88.5003 8.05864 88.6617 8.28864 88.7816 8.56489C88.9051 8.834 88.9586 9.14382 88.9421 9.49434L90.4729 9.28935C90.4732 8.67039 90.2945 8.07714 89.9367 7.50959C89.5861 6.94566 89.0613 6.48618 88.3623 6.13113C87.7703 5.83044 87.1863 5.6729 86.6104 5.65852C86.038 5.63702 85.4972 5.7302 84.9879 5.93807C84.4821 6.1388 84.0295 6.42037 83.6301 6.78278ZM75.2005 3.63966C75.1569 3.57355 75.0703 3.47821 74.9406 3.35364C74.8189 3.23068 74.661 3.10441 74.4671 2.97482C74.281 2.84684 74.0729 2.7266 73.8428 2.6141C73.6143 2.49376 73.3747 2.40789 73.1239 2.35648C72.685 2.26651 72.3351 2.28051 72.0741 2.3985C71.8209 2.51809 71.6638 2.72679 71.6027 3.0246C71.5561 3.25187 71.5897 3.44658 71.7035 3.60873C71.8172 3.77088 72.0055 3.92789 72.2684 4.07978C72.5312 4.23166 72.863 4.40584 73.2637 4.60231C73.785 4.848 74.2254 5.10978 74.5849 5.38764C74.9539 5.65928 75.212 5.97352 75.3594 6.33038C75.5161 6.68101 75.5423 7.11103 75.4379 7.62043C75.3463 8.06714 75.1853 8.43429 74.9549 8.72187C74.726 9.00161 74.4465 9.20972 74.1164 9.3462C73.7863 9.48268 73.4274 9.56019 73.0398 9.57872C72.6537 9.58942 72.2531 9.55219 71.8377 9.46704C71.4223 9.38189 71.0158 9.25364 70.6181 9.08228C70.2204 8.91092 69.8456 8.70751 69.4938 8.47205C69.1435 8.22874 68.831 7.96052 68.5563 7.66738L69.5601 6.41548C69.6162 6.50047 69.7223 6.62022 69.8785 6.77472C70.0362 6.9214 70.2324 7.08002 70.4669 7.25059C70.703 7.41333 70.9659 7.56521 71.2555 7.70624C71.545 7.84726 71.8466 7.94991 72.16 8.01418C72.5989 8.10415 72.9472 8.09798 73.205 7.99566C73.4628 7.89335 73.6199 7.70505 73.6761 7.43075C73.7275 7.17997 73.6775 6.96557 73.5262 6.78755C73.3749 6.60953 73.149 6.43665 72.8486 6.26889C72.5497 6.0933 72.1937 5.89783 71.7806 5.68247C71.286 5.42592 70.8809 5.17137 70.5652 4.91882C70.2511 4.65844 70.0367 4.3695 69.9221 4.05203C69.8076 3.73455 69.7937 3.36421 69.8804 2.94101C69.9977 2.36891 70.2289 1.91816 70.5741 1.58878C70.9287 1.25316 71.3573 1.03478 71.8599 0.933643C72.364 0.824671 72.8982 0.828022 73.4625 0.943698C73.8544 1.02403 74.2139 1.14264 74.541 1.29954C74.876 1.45805 75.1819 1.63916 75.4586 1.84288C75.7353 2.04661 75.9783 2.25566 76.1875 2.47004L75.2005 3.63966ZM57.4139 2.82593C57.4139 3.9305 58.3093 4.82593 59.4139 4.82593C60.5185 4.82593 61.4139 3.9305 61.4139 2.82593C61.4139 1.72136 60.5185 0.825928 59.4139 0.825928C58.3093 0.825928 57.4139 1.72136 57.4139 2.82593ZM57.4139 112.826C57.4139 113.93 58.3093 114.826 59.4139 114.826C60.5185 114.826 61.4139 113.93 61.4139 112.826C61.4139 111.721 60.5185 110.826 59.4139 110.826C58.3093 110.826 57.4139 111.721 57.4139 112.826ZM108.762 73.7656L116.587 77.1353L115.363 79.9789C114.996 80.8312 114.513 81.468 113.913 81.8893C113.321 82.3137 112.666 82.541 111.947 82.5713C111.236 82.6047 110.52 82.4664 109.8 82.1563C109.007 81.8146 108.384 81.3592 107.932 80.7902C107.48 80.2211 107.218 79.5767 107.145 78.857C107.068 78.1447 107.199 77.3954 107.538 76.6092L108.762 73.7656ZM110.46 80.6243C110.967 80.8427 111.451 80.9422 111.912 80.9231C112.381 80.9071 112.796 80.7723 113.158 80.5187C113.527 80.2683 113.817 79.8969 114.029 79.4046L114.599 78.082L109.441 75.8609L108.871 77.1835C108.656 77.6831 108.584 78.1531 108.656 78.5933C108.735 79.0368 108.931 79.4305 109.245 79.7745C109.563 80.1291 109.968 80.4124 110.46 80.6243ZM101.581 87.6241C101.069 87.8641 100.613 88.2239 100.214 88.7034C99.83 89.1646 99.566 89.663 99.4219 90.1988C99.2726 90.7408 99.234 91.2811 99.3059 91.8198C99.379 92.3698 99.5457 92.8886 99.8061 93.376C100.073 93.8685 100.421 94.2939 100.852 94.6522C101.27 95.0003 101.739 95.2612 102.261 95.4351C102.782 95.6089 103.318 95.6906 103.868 95.6801C104.418 95.6695 104.952 95.5468 105.47 95.312C105.984 95.0833 106.437 94.7323 106.831 94.2588C107.22 93.7915 107.486 93.2844 107.629 92.7373C107.773 92.2016 107.809 91.6587 107.736 91.1087C107.664 90.5699 107.497 90.0512 107.236 89.5525C106.975 89.0651 106.627 88.6397 106.19 88.2763C105.772 87.9282 105.299 87.6647 104.772 87.4857C104.25 87.3119 103.715 87.2302 103.165 87.2407C102.616 87.2625 102.088 87.3903 101.581 87.6241ZM104.187 89.0133C104.523 89.1473 104.833 89.332 105.116 89.5674C105.386 89.7926 105.617 90.0527 105.809 90.3476C105.996 90.6486 106.127 90.9661 106.203 91.3C106.279 91.6339 106.281 91.9688 106.209 92.3048C106.139 92.6521 105.973 92.9825 105.712 93.2961C105.466 93.5912 105.185 93.8044 104.867 93.9357C104.551 94.0782 104.222 94.1424 103.88 94.1282C103.539 94.1254 103.2 94.0569 102.864 93.9229C102.529 93.8002 102.22 93.6211 101.937 93.3856C101.673 93.1655 101.444 92.9024 101.251 92.5963C101.06 92.3014 100.923 91.9844 100.841 91.6454C100.765 91.3115 100.762 90.9709 100.833 90.6237C100.909 90.2815 101.075 89.9567 101.331 89.6493C101.582 89.348 101.866 89.1261 102.182 88.9836C102.5 88.8523 102.829 88.7881 103.17 88.791C103.512 88.8052 103.851 88.8793 104.187 89.0133ZM94.5607 105.434L93.2507 106.236L90.9493 104.338L91.5824 107.257L90.2826 108.053L89.5076 103.983L87.1706 102.234L88.5655 109.132L87.0303 110.072L85.4887 101.026L86.7066 100.281L89.8529 102.547L89.255 98.7206L90.4729 97.975L97.8176 103.469L96.3029 104.396L90.7834 100.022L91.2987 102.886L94.5607 105.434ZM75.3638 105.086L76.5688 110.424L71.1264 106.043L69.7803 106.346L71.6539 114.646L73.2692 114.281L72.0351 108.814L77.5677 113.323L78.8553 113.032L76.9791 104.721L75.3638 105.086ZM44.8993 111.921C44.943 111.987 45.0298 112.082 45.1597 112.206C45.2817 112.329 45.4398 112.455 45.634 112.584C45.8204 112.712 46.0287 112.832 46.259 112.944C46.4877 113.064 46.7275 113.149 46.9784 113.2C47.4174 113.289 47.7673 113.274 48.0281 113.156C48.2811 113.036 48.4378 112.827 48.4983 112.529C48.5444 112.302 48.5105 112.107 48.3964 111.945C48.2823 111.783 48.0937 111.626 47.8306 111.475C47.5674 111.324 47.2353 111.15 46.8342 110.954C46.3125 110.71 45.8716 110.449 45.5115 110.172C45.142 109.901 44.8832 109.587 44.7352 109.23C44.5778 108.88 44.5508 108.45 44.6542 107.941C44.7449 107.494 44.9052 107.126 45.1351 106.838C45.3634 106.558 45.6425 106.349 45.9724 106.212C46.3022 106.075 46.661 105.997 47.0485 105.978C47.4345 105.966 47.8353 106.003 48.2508 106.087C48.6663 106.171 49.0731 106.299 49.4711 106.469C49.8692 106.64 50.2443 106.843 50.5967 107.077C50.9474 107.32 51.2604 107.588 51.5357 107.88L50.5343 109.134C50.4781 109.049 50.3717 108.93 50.2153 108.775C50.0572 108.629 49.8608 108.471 49.6259 108.301C49.3895 108.138 49.1263 107.987 48.8365 107.847C48.5466 107.706 48.2449 107.604 47.9313 107.54C47.4922 107.451 47.1439 107.458 46.8863 107.561C46.6287 107.664 46.4721 107.852 46.4164 108.127C46.3654 108.378 46.4158 108.592 46.5675 108.77C46.7192 108.947 46.9454 109.12 47.2461 109.287C47.5453 109.462 47.9017 109.657 48.3153 109.871C48.8103 110.127 49.2159 110.381 49.5321 110.633C49.8468 110.892 50.0617 111.181 50.1768 111.498C50.292 111.816 50.3067 112.186 50.2207 112.609C50.1045 113.182 49.8742 113.633 49.5296 113.963C49.1757 114.299 48.7475 114.518 48.2451 114.62C47.7412 114.73 47.207 114.728 46.6425 114.613C46.2505 114.534 45.8908 114.416 45.5633 114.26C45.228 114.102 44.9218 113.921 44.6447 113.718C44.3676 113.515 44.1242 113.306 43.9146 113.092L44.8993 111.921ZM36.4637 108.794C36.8516 108.434 37.1629 108.023 37.3975 107.559C37.6393 107.08 37.7901 106.56 37.8498 105.999C37.8987 105.441 37.8582 104.892 37.7282 104.351C37.5875 103.813 37.3499 103.317 37.0156 102.861C36.6777 102.412 36.2374 102.051 35.6948 101.777C35.2807 101.567 34.8288 101.424 34.339 101.347C33.8491 101.269 33.3697 101.278 32.9006 101.373C32.4243 101.464 32.0156 101.66 31.6744 101.963L32.5327 103.271C32.7841 103.057 33.0566 102.917 33.3503 102.85C33.6439 102.784 33.932 102.772 34.2144 102.817C34.4969 102.861 34.7559 102.942 34.9915 103.062C35.3199 103.228 35.5891 103.449 35.799 103.725C35.9981 104.005 36.1381 104.313 36.2189 104.65C36.2889 104.99 36.2999 105.341 36.2518 105.702C36.2001 106.07 36.0895 106.422 35.9198 106.758C35.7682 107.058 35.5738 107.336 35.3366 107.592C35.0922 107.845 34.8158 108.046 34.5075 108.195C34.1991 108.344 33.8714 108.425 33.5243 108.438C33.1701 108.447 32.8073 108.358 32.4361 108.17C32.2076 108.055 31.9936 107.902 31.7941 107.711C31.591 107.528 31.4292 107.298 31.3087 107.022C31.1847 106.753 31.1306 106.443 31.1465 106.093L29.6161 106.301C29.6169 106.92 29.7968 107.513 30.1557 108.08C30.5074 108.643 31.0331 109.101 31.7328 109.455C32.3254 109.754 32.9096 109.911 33.4856 109.924C34.0579 109.945 34.5986 109.85 35.1076 109.641C35.6129 109.44 36.0649 109.157 36.4637 108.794ZM27.1392 96.4885L21.4207 102.804L18.6275 100.275C18.3369 100.012 18.1237 99.7113 17.988 99.3725C17.8463 99.0284 17.7778 98.675 17.7824 98.3123C17.7812 97.9442 17.8458 97.5927 17.9765 97.2577C18.1012 96.9173 18.2816 96.6167 18.5179 96.3557C18.7595 96.0889 19.0405 95.8739 19.3609 95.7107C19.67 95.5481 19.9938 95.4527 20.3322 95.4246C20.6707 95.3965 21.0012 95.4367 21.3237 95.5453L22.0331 91.8654L23.3853 93.0897L22.7671 96.3827L23.9947 97.4942L25.9116 95.3771L27.1392 96.4885ZM23.0201 98.5705L21.4812 97.1772C21.327 97.0376 21.1503 96.9585 20.9512 96.9401C20.7467 96.9276 20.539 96.9662 20.3283 97.056C20.1175 97.1457 19.9262 97.2855 19.7544 97.4753C19.5718 97.6769 19.4549 97.8894 19.4037 98.1129C19.3471 98.3422 19.3438 98.5604 19.3937 98.7675C19.4377 98.9692 19.5339 99.1372 19.6821 99.2715L21.1677 100.617L23.0201 98.5705ZM16.9947 85.9557C16.9275 85.3943 16.729 84.8488 16.3989 84.3192C16.0816 83.81 15.6912 83.4029 15.2277 83.0978C14.76 82.786 14.2591 82.5797 13.725 82.479C13.1799 82.3757 12.6351 82.3711 12.0905 82.4654C11.5392 82.5639 11.0259 82.7613 10.5506 83.0574C10.089 83.3452 9.69374 83.7093 9.365 84.1498C9.03625 84.5904 8.79056 85.0734 8.62791 85.599C8.46526 86.1245 8.4141 86.6701 8.47443 87.2358C8.53052 87.7947 8.72147 88.3356 9.04727 88.8584C9.36884 89.3744 9.76687 89.7861 10.2414 90.0937C10.7048 90.3988 11.2091 90.6029 11.7542 90.7062C12.2884 90.807 12.8332 90.8115 13.3887 90.7198C13.9333 90.6255 14.4466 90.4282 14.9286 90.1278C15.3903 89.84 15.7889 89.4738 16.1245 89.029C16.4532 88.5885 16.6989 88.1055 16.8615 87.5799C17.0132 87.0518 17.0575 86.5104 16.9947 85.9557ZM14.8576 87.9945C14.6249 88.2715 14.3524 88.5074 14.0401 88.702C13.7413 88.8882 13.4219 89.026 13.0817 89.1154C12.7373 89.1981 12.3947 89.2231 12.0538 89.1904C11.713 89.1578 11.3943 89.0547 11.0977 88.8814C10.7901 88.7054 10.5284 88.4443 10.3126 88.0981C10.1095 87.7722 9.99548 87.4379 9.97047 87.0953C9.93446 86.7501 9.97687 86.4173 10.0977 86.0969C10.2075 85.774 10.3788 85.474 10.6115 85.197C10.8332 84.9175 11.1002 84.6804 11.4125 84.4857C11.7044 84.3038 12.026 84.1694 12.3772 84.0825C12.7173 83.993 13.0612 83.9625 13.4089 83.991C13.7497 84.0236 14.074 84.1279 14.3816 84.3039C14.6824 84.484 14.9386 84.7438 15.1501 85.0833C15.3574 85.416 15.4791 85.7549 15.5151 86.1001C15.5401 86.4427 15.4977 86.7755 15.3879 87.0985C15.2671 87.4189 15.0903 87.7175 14.8576 87.9945ZM11.4195 74.4919L3.23038 76.8434L2.77333 75.2517L9.56681 73.301L8.3679 69.1257L9.76351 68.725L11.4195 74.4919ZM0.210312 62.2853L8.72829 62.0998L8.59768 56.1012L7.14603 56.1328L7.24059 60.4758L0.174263 60.6297L0.210312 62.2853ZM11.2021 41.8608L3.37026 38.5063L4.58923 35.6604C4.9546 34.8073 5.43661 34.1696 6.03529 33.7472C6.62659 33.3216 7.2815 33.093 8.00001 33.0614C8.71116 33.0265 9.42707 33.1635 10.1477 33.4722C10.942 33.8123 11.5655 34.2665 12.0184 34.8347C12.4712 35.4029 12.735 36.0468 12.8098 36.7663C12.8877 37.4785 12.7581 38.228 12.4211 39.0149L11.2021 41.8608ZM9.49102 35.0054C8.9836 34.7881 8.49932 34.6895 8.03818 34.7095C7.56968 34.7264 7.15479 34.862 6.79348 35.1163C6.42483 35.3674 6.13498 35.7394 5.92395 36.2321L5.35699 37.5558L10.5194 39.7669L11.0863 38.4432C11.3005 37.9432 11.3713 37.4731 11.2988 37.0329C11.2188 36.5897 11.0218 36.1963 10.7076 35.8529C10.3893 35.4989 9.98373 35.2165 9.49102 35.0054ZM18.3566 27.9875C18.8681 27.7466 19.3231 27.3859 19.7214 26.9056C20.1043 26.4437 20.3674 25.9447 20.5105 25.4087C20.6587 24.8665 20.6963 24.3261 20.6233 23.7875C20.5492 23.2376 20.3815 22.7192 20.1201 22.2323C19.8526 21.7402 19.5033 21.3155 19.0722 20.9581C18.6534 20.6108 18.1831 20.3508 17.6613 20.1779C17.1395 20.0051 16.6036 19.9245 16.0536 19.9361C15.5036 19.9477 14.9697 20.0714 14.452 20.3072C13.9394 20.5369 13.4865 20.8888 13.0933 21.363C12.7052 21.831 12.4402 22.3387 12.2981 22.886C12.155 23.4221 12.1205 23.9651 12.1946 24.5149C12.2676 25.0535 12.4353 25.5719 12.6977 26.0701C12.9591 26.557 13.3084 26.9818 13.7457 27.3443C14.1644 27.6916 14.6378 27.9542 15.1657 28.1321C15.6875 28.305 16.2234 28.3856 16.7735 28.374C17.3224 28.3511 17.8501 28.2223 18.3566 27.9875ZM15.7474 26.6035C15.4111 26.4701 15.1013 26.286 14.818 26.0511C14.547 25.8264 14.3154 25.5668 14.1231 25.2723C13.936 24.9716 13.8041 24.6544 13.7275 24.3207C13.6508 23.9869 13.648 23.652 13.7188 23.3158C13.7887 22.9684 13.9538 22.6377 14.2142 22.3236C14.4593 22.028 14.7405 21.8143 15.0577 21.6824C15.3738 21.5392 15.703 21.4744 16.0452 21.4879C16.3862 21.4901 16.7249 21.5579 17.0612 21.6913C17.3965 21.8134 17.7057 21.9919 17.989 22.2267C18.2538 22.4463 18.4829 22.709 18.6762 23.0148C18.8685 23.3093 19.006 23.626 19.0888 23.9648C19.1654 24.2986 19.1688 24.6391 19.099 24.9866C19.023 25.3289 18.8574 25.654 18.602 25.9619C18.3518 26.2636 18.0686 26.4861 17.7525 26.6293C17.4353 26.7611 17.1061 26.826 16.765 26.8237C16.4229 26.8102 16.0837 26.7368 15.7474 26.6035ZM25.3422 10.1647L26.6506 9.36023L28.9556 11.2534L28.3169 8.33578L29.6152 7.53759L30.3981 11.6062L32.7385 13.3508L31.3302 6.45498L32.8636 5.51224L34.4227 14.5551L33.2062 15.303L30.0555 13.0424L30.6608 16.868L29.4443 17.6159L22.0891 12.1366L23.602 11.2064L29.1299 15.5694L28.6091 12.7061L25.3422 10.1647ZM44.5398 10.4751L43.3244 5.13982L48.7753 9.51033L50.1208 9.20383L48.2312 0.908332L46.6165 1.27614L47.8612 6.74017L42.3199 2.24258L41.0328 2.53575L42.9251 10.843L44.5398 10.4751Z" fill="#23240D"/>
</svg>
